<svg width="44" height="44" fill="none" xmlns="http://www.w3.org/2000/svg"><path d="M0 22C0 9.85 9.85 0 22 0s22 9.85 22 22-9.85 22-22 22S0 34.15 0 22z" fill="#000" fill-opacity=".36"/><path d="M16.431 18.927c.087-.076.13-.115.137-.152a.11.11 0 00-.024-.092c-.025-.029-.081-.04-.193-.061-1.307-.255-2.66-.404-3.847-.416-.057 0-.086-.001-.108-.012a.11.11 0 01-.046-.043c-.013-.02-.016-.049-.021-.105l-.44-4.525a.267.267 0 010-.108.11.11 0 01.038-.051c.02-.015.048-.02.103-.03 6.63-1.283 13.229-1.35 19.958.002.055.01.082.016.102.031a.11.11 0 01.038.051c.008.024.005.052 0 .108l-.457 4.523c-.005.055-.008.084-.02.104a.109.109 0 01-.047.043.293.293 0 01-.108.012c-1.187.012-2.54.161-3.847.416-.112.021-.168.032-.193.061a.11.11 0 00-.025.092c.007.037.05.076.138.152 3.149 2.777 5.376 6.435 5.426 11.574.001.062.001.093-.01.116a.11.11 0 01-.049.049c-.023.012-.054.012-.116.012h-4.537c-.061 0-.092 0-.115-.012a.109.109 0 01-.048-.047c-.012-.023-.013-.055-.014-.118-.059-4.29-2.262-7.149-6.01-9.597a.243.243 0 00-.071-.038.11.11 0 00-.05 0 .245.245 0 00-.071.038c-3.749 2.448-5.952 5.308-6.01 9.597-.002.063-.002.095-.014.118a.11.11 0 01-.048.047c-.023.012-.054.012-.116.012H11.18c-.061 0-.092 0-.116-.012a.11.11 0 01-.048-.049c-.012-.023-.011-.054-.01-.116.05-5.14 2.277-8.797 5.426-11.574z" fill="#fff"/></svg>