<svg width="52" height="52" fill="none" xmlns="http://www.w3.org/2000/svg"><path d="M0 26C0 11.64 11.64 0 26 0s26 11.64 26 26-11.64 26-26 26S0 40.36 0 26z" fill="#000"/><path d="M0 26C0 11.64 11.64 0 26 0s26 11.64 26 26-11.64 26-26 26S0 40.36 0 26z" fill="url(#paint0_linear_1218_10208)"/><path d="M19.42 22.369c.103-.091.154-.136.162-.18a.13.13 0 00-.03-.109c-.029-.034-.095-.047-.227-.073-1.545-.3-3.144-.477-4.546-.492-.068 0-.101 0-.128-.013a.129.129 0 01-.055-.05c-.015-.026-.018-.059-.024-.125l-.52-5.348c-.007-.067-.01-.1 0-.127a.13.13 0 01.045-.06c.024-.018.056-.025.122-.037 7.835-1.516 15.633-1.594 23.586.003.065.013.098.02.12.037a.13.13 0 01.046.06c.01.028.006.061 0 .127l-.54 5.345c-.007.066-.01.1-.025.124a.129.129 0 01-.055.05c-.026.014-.06.014-.127.014-1.403.015-3.002.191-4.547.492-.132.026-.198.039-.228.073a.13.13 0 00-.03.108c.009.045.06.09.163.18 3.722 3.282 6.355 7.605 6.414 13.678 0 .073 0 .11-.013.138a.13.13 0 01-.057.057c-.028.014-.064.014-.137.014h-5.362c-.073 0-.11 0-.137-.013a.13.13 0 01-.056-.056c-.015-.028-.015-.065-.016-.14-.07-5.07-2.673-8.448-7.104-11.341a.289.289 0 00-.083-.046.13.13 0 00-.06 0 .289.289 0 00-.083.046c-4.43 2.893-7.034 6.272-7.104 11.341 0 .075-.001.112-.015.14a.13.13 0 01-.057.056c-.028.014-.064.014-.137.014h-5.362c-.073 0-.109 0-.137-.015a.131.131 0 01-.057-.057c-.014-.028-.014-.065-.013-.138.06-6.073 2.692-10.396 6.414-13.677z" fill="#fff"/><defs><linearGradient id="paint0_linear_1218_10208" x1="26" y1="0" x2="26" y2="52" gradientUnits="userSpaceOnUse"><stop stop-color="#EF3F51"/><stop offset="1" stop-color="#FC6743"/></linearGradient></defs></svg>