<svg width="32" height="32" fill="none" xmlns="http://www.w3.org/2000/svg"><rect width="32" height="32" rx="16" fill="#F53"/><path fill-rule="evenodd" clip-rule="evenodd" d="M8.928 11.514a230.922 230.922 0 003.262 2.17 78.28 78.28 0 002.645 1.659c.38.225.703.405.947.527.09.045.162.078.218.102a3.78 3.78 0 00.218-.102c.244-.122.566-.302.947-.527a79.43 79.43 0 002.645-1.66 199.51 199.51 0 003.263-2.169 1.997 1.997 0 00-1.573-.764h-11c-.638 0-1.206.299-1.572.764zM23.5 13.036l-.331.223c-.682.458-1.6 1.07-2.541 1.682a79.576 79.576 0 01-2.7 1.693c-.392.232-.75.433-1.039.577a4.658 4.658 0 01-.41.185A1.38 1.38 0 0116 17.5c-.197 0-.382-.067-.48-.104a4.671 4.671 0 01-.41-.185 17.377 17.377 0 01-1.038-.577 79.676 79.676 0 01-2.7-1.693A200.283 200.283 0 018.5 13.036v6.214a2 2 0 002 2h11a2 2 0 002-2v-6.214zm-7.605 2.975l.006-.001-.006.001zm.204-.001a.05.05 0 01.006.001l-.006-.001z" fill="#fff"/></svg>