<svg width="32" height="32" fill="none" xmlns="http://www.w3.org/2000/svg"><path d="M16 32c8.837 0 16-7.163 16-16S24.837 0 16 0 0 7.163 0 16s7.163 16 16 16z" fill="#34AADF"/><path d="M8.165 15.977s6.433-2.555 8.664-3.454c.856-.36 3.756-1.511 3.756-1.511s1.339-.504 1.227.72c-.037.503-.334 2.266-.632 4.173-.446 2.698-.93 5.648-.93 5.648s-.074.828-.706.972c-.632.144-1.673-.504-1.86-.648-.148-.108-2.788-1.727-3.755-2.518-.26-.216-.558-.648.037-1.152a140.198 140.198 0 003.905-3.597c.446-.432.892-1.44-.967-.216-2.64 1.763-5.243 3.418-5.243 3.418s-.595.36-1.71.036c-1.117-.324-2.418-.756-2.418-.756s-.892-.54.632-1.115z" fill="#fff"/></svg>