<svg width="108" height="108" fill="none" xmlns="http://www.w3.org/2000/svg"><path d="M2 54C2 25.281 25.281 2 54 2s52 23.281 52 52-23.281 52-52 52S2 82.719 2 54z" fill="#0F2D38"/><path d="M81.45 57.339l-4.033 10.68h-4.723l-4.13-10.68h12.887zm.001-16.023l-4.033 10.681H58.036l-4.038-10.68h27.453z" fill="#00AF7E"/><path d="M78.839 78.7l-10.71-.005-10.094-26.697-4.038-10.681-4.034 10.68L39.866 78.7H29.15l10.318-26.702 4.13-10.681 4.64-12.017h11.516L64.4 41.317l4.125 10.68L78.84 78.7z" fill="#fff"/><path d="M53.998 41.316l-4.034 10.681H30.587l-4.038-10.68h27.449zm6.055 16.023l4.038 10.68H30.587l-4.038-10.68h33.504z" fill="#00AF7E"/><path d="M54 104.775C25.958 104.775 3.225 82.042 3.225 54H.775c0 29.395 23.83 53.225 53.225 53.225v-2.45zM104.775 54c0 28.042-22.733 50.775-50.775 50.775v2.45c29.395 0 53.225-23.83 53.225-53.225h-2.45zM54 3.225c28.042 0 50.775 22.733 50.775 50.775h2.45C107.225 24.605 83.395.775 54 .775v2.45zm0-2.45C24.605.775.775 24.605.775 54h2.45C3.225 25.958 25.958 3.225 54 3.225V.775z" fill="#fff"/></svg>