<svg width="83" height="89" fill="none" xmlns="http://www.w3.org/2000/svg"><path d="M2 55C2 25.729 25.729 2 55 2s53 23.729 53 53-23.729 53-53 53S2 84.271 2 55z" fill="#000"/><g clip-path="url(#clip0_1317_12639)"><path d="M62.612 38.315H44.684v33.18h17.928v-33.18z" fill="#FF5A00"/><path d="M45.877 54.904c0-6.74 3.076-12.724 7.797-16.59C50.2 35.5 45.817 33.8 41.036 33.8c-11.324 0-20.487 9.439-20.487 21.104 0 11.666 9.163 21.105 20.487 21.105 4.78 0 9.164-1.701 12.638-4.515-4.728-3.811-7.797-9.849-7.797-16.59z" fill="#EB001B"/><path d="M86.799 54.904c0 11.666-9.163 21.105-20.488 21.105-4.78 0-9.163-1.701-12.637-4.515 4.78-3.873 7.797-9.849 7.797-16.59 0-6.74-3.076-12.724-7.797-16.59 3.468-2.814 7.85-4.514 12.63-4.514 11.332 0 20.495 9.5 20.495 21.104z" fill="#F79E1B"/></g><path d="M55 106.775c-28.595 0-51.775-23.18-51.775-51.775H.775c0 29.948 24.277 54.225 54.225 54.225v-2.45zM106.775 55c0 28.594-23.18 51.775-51.775 51.775v2.45c29.948 0 54.225-24.277 54.225-54.225h-2.45zM55 3.225c28.594 0 51.775 23.18 51.775 51.775h2.45C109.225 25.052 84.948.775 55 .775v2.45zm0-2.45C25.052.775.775 25.052.775 55h2.45C3.225 26.405 26.405 3.225 55 3.225V.775z" fill="#fff"/><defs><clipPath id="clip0_1317_12639"><path fill="#fff" transform="translate(20.549 33.8)" d="M0 0h66.25v42.4H0z"/></clipPath></defs></svg>