<svg width="107" height="108" fill="none" xmlns="http://www.w3.org/2000/svg"><path d="M53.4 106c-28.689.021-52-23.27-52.021-51.98-.02-28.688 23.27-52 51.98-52.02 28.688-.02 51.999 23.27 52.02 51.98.02 28.688-23.27 51.999-51.98 52.02z" fill="#0098DD"/><path fill-rule="evenodd" clip-rule="evenodd" d="M36.349 22.561c.02 10.65.02 21.28.02 31.93l.002 6.428c.003 8.57.006 17.139-.043 25.709 0 .759.164.984.944.964a214.63 214.63 0 018.906 0c.842 0 1.067-.205 1.067-1.067a2737.73 2737.73 0 01-.023-16.88c.001-1.876.003-3.753.003-5.632 0-.704 0-1.053.174-1.226.171-.169.51-.169 1.18-.169.868 0 1.736.005 2.603.01 2.312.011 4.62.024 6.919-.051 2.75-.082 5.5-.328 8.167-1.088 5.007-1.436 7.942-5.068 9.789-9.644 2.257-5.603 2.216-11.43.903-17.238-.985-4.35-3.202-7.942-6.895-10.548-2.976-2.093-6.423-2.278-9.85-2.4-4.997-.176-9.984-.165-14.974-.155-2.614.006-5.229.011-7.846-.01-.862 0-1.046.226-1.046 1.067zM47.243 33.52v8.496l.002 1.7c.003 2.264.007 4.526-.043 6.775 0 .636.144.903.842.883 1.204-.028 2.41-.019 3.616-.01 2.412.019 4.825.037 7.219-.237 1.95-.225 3.714-.8 5.089-2.298 2.504-2.73 2.934-5.992 2.196-9.44-.719-3.344-3.078-5.95-6.793-6.32-3.11-.318-6.207-.336-9.313-.354-.705-.004-1.41-.008-2.117-.015-.657 0-.698.307-.698.82z" fill="#FEFEFE"/><path d="M53.379 104.775C25.337 104.775 2.604 82.042 2.604 54H.154c0 29.395 23.83 53.225 53.225 53.225v-2.45zM104.154 54c0 28.042-22.733 50.775-50.775 50.775v2.45c29.395 0 53.225-23.83 53.225-53.225h-2.45zM53.379 3.225c28.042 0 50.775 22.733 50.775 50.775h2.45c0-29.395-23.83-53.225-53.225-53.225v2.45zm0-2.45C23.984.775.154 24.605.154 54h2.45c0-28.042 22.733-50.775 50.775-50.775V.775z" fill="#fff"/></svg>