<svg width="108" height="108" fill="none" xmlns="http://www.w3.org/2000/svg"><path d="M2 54C2 25.281 25.281 2 54 2s52 23.281 52 52-23.281 52-52 52S2 82.719 2 54z" fill="#FD8C00"/><path d="M77.452 67.532c1.195.46 1.655 2.25 1.746 3.03.184 1.425-.228 1.976-.688 1.976-.46 0-1.104-.551-1.791-1.653-.69-1.104-.965-2.343-.597-2.986.228-.414.732-.597 1.33-.367zm-6.98 5.19c.735 0 1.562.321 2.297.964 1.423 1.194 1.837 2.572 1.102 3.582-.414.506-1.102.827-1.883.827-.78 0-1.607-.275-2.158-.78-1.287-1.103-1.653-2.941-.828-3.95.322-.415.828-.643 1.47-.643zM54.399 85.995c-17.454 0-31.598-14.147-31.598-31.599C22.8 36.944 36.947 22.8 54.397 22.8c17.452 0 31.599 14.146 31.599 31.596a31.792 31.792 0 01-4.454 16.213c-.093.137-.323.092-.368-.092-1.103-7.761-5.833-12.034-12.722-13.318-.598-.093-.69-.46.091-.551 2.113-.185 5.098-.139 6.66.137.09-.781.138-1.608.138-2.434 0-11.528-9.37-20.898-20.898-20.898-11.527 0-20.896 9.37-20.896 20.898s9.37 20.898 20.898 20.898h.963a28.19 28.19 0 01-.414-5.65c.047-1.286.323-1.47.874-.46 2.893 5.006 7.027 9.507 15.11 11.298 6.613 1.47 13.226 3.17 20.345 12.216.642.781-.322 1.608-1.057.965-7.255-6.43-13.869-8.543-19.885-8.543-6.752.047-11.343.92-15.982.92z" fill="#fff"/><path d="M54 104.775C25.958 104.775 3.225 82.042 3.225 54H.775c0 29.395 23.83 53.225 53.225 53.225v-2.45zM104.775 54c0 28.042-22.733 50.775-50.775 50.775v2.45c29.395 0 53.225-23.83 53.225-53.225h-2.45zM54 3.225c28.042 0 50.775 22.733 50.775 50.775h2.45C107.225 24.605 83.395.775 54 .775v2.45zm0-2.45C24.605.775.775 24.605.775 54h2.45C3.225 25.958 25.958 3.225 54 3.225V.775z" fill="#fff"/></svg>