<svg width="108" height="108" fill="none" xmlns="http://www.w3.org/2000/svg"><path d="M2 54C2 25.281 25.281 2 54 2s52 23.281 52 52-23.281 52-52 52S2 82.719 2 54z" fill="#020307"/><path d="M18.588 50.536v3.487l10.015-1.035v-3.774l-10.015 1.322zm3.196 3.699v11.947h3.667v-12.3l-3.667.353zm8.172-5.2v17.147h3.863V48.526l-3.864.51zm4.583-.604v3.944l5.579-.577v-4.104l-5.58.736zm0 6.88v4.016l3.662-.188v-4.124l-3.662.296zm0 6.91v3.961h5.579v-4.118l-5.58.158zm20.007-16.437v20.398h5.065V45.115l-5.065.669zm6.01-.794v4.692l7.382-.762v-4.904l-7.381.974zm0 8.221v4.78l4.838-.249v-4.92l-4.837.39zm0 8.272v4.7h7.382v-4.909l-7.381.21zM41.595 47.5v18.683h4.401V46.918l-4.4.581zm5.223 14.375v4.308h6.388v-4.489l-6.388.181zm37.669-18.089c-1.601-1.42-3.948-2.003-6.515-1.656v5.204c1.04-.054 1.882.308 2.257 1.037.593 1.15-.019 2.876-1.461 4.475-2.226 2.467-8.146 7.517-8.146 7.517l8.498-.262c5.193-4.765 7.057-7.657 7.392-11.266.176-1.91-.562-3.75-2.025-5.049zm2.324 22.397v-5.445l-17.237.488 17.237 4.957zm-17.237-4.958l.002 4.958H86.81l-17.237-4.958zm7.407-18.978c-5.008 1.001-7.467 4.46-7.183 10.106l5.34-.444c-.244-3.19.795-3.947 1.845-4.363l-.002-5.3zM54 104.775C25.958 104.775 3.225 82.042 3.225 54H.775c0 29.395 23.83 53.225 53.225 53.225v-2.45zM104.775 54c0 28.042-22.733 50.775-50.775 50.775v2.45c29.395 0 53.225-23.83 53.225-53.225h-2.45zM54 3.225c28.042 0 50.775 22.733 50.775 50.775h2.45C107.225 24.605 83.395.775 54 .775v2.45zm0-2.45C24.605.775.775 24.605.775 54h2.45C3.225 25.958 25.958 3.225 54 3.225V.775z" fill="#fff"/></svg>