<svg width="110" height="110" fill="none" xmlns="http://www.w3.org/2000/svg"><path d="M2 55C2 25.729 25.729 2 55 2s53 23.729 53 53-23.729 53-53 53S2 84.271 2 55z" fill="#1434CB"/><g clip-path="url(#clip0_1317_12640)"><path d="M66.216 41.786c-5.263 0-9.966 3-9.966 8.545 0 6.358 8.341 6.797 8.341 9.991 0 1.345-1.4 2.55-3.794 2.55-3.396 0-5.935-1.683-5.935-1.683l-1.086 5.595s2.924 1.42 6.807 1.42c5.754 0 10.282-3.148 10.282-8.786 0-6.719-8.376-7.145-8.376-10.11 0-1.053 1.15-2.208 3.536-2.208 2.693 0 4.89 1.224 4.89 1.224l1.062-5.404s-2.39-1.134-5.76-1.134zm-48.153.408l-.127.816s2.214.445 4.208 1.334c2.568 1.02 2.75 1.614 3.183 3.457l4.713 19.983h6.317l9.732-25.59h-6.303l-6.253 17.399-2.552-14.748c-.234-1.688-1.42-2.651-2.87-2.651H18.063zm30.56 0l-4.944 25.59h6.01l4.927-25.59h-5.993zm33.52 0c-1.448 0-2.216.853-2.78 2.345l-8.805 23.245h6.303l1.22-3.874h7.678l.741 3.874h5.561l-4.851-25.59h-5.066zm.82 6.914l1.869 9.602h-5.005l3.137-9.602z" fill="#fff"/></g><path d="M55 106.775c-28.595 0-51.775-23.18-51.775-51.775H.775c0 29.948 24.277 54.225 54.225 54.225v-2.45zM106.775 55c0 28.594-23.18 51.775-51.775 51.775v2.45c29.948 0 54.225-24.277 54.225-54.225h-2.45zM55 3.225c28.594 0 51.775 23.18 51.775 51.775h2.45C109.225 25.052 84.948.775 55 .775v2.45zm0-2.45C25.052.775.775 25.052.775 55h2.45C3.225 26.405 26.405 3.225 55 3.225V.775z" fill="#fff"/><defs><clipPath id="clip0_1317_12640"><path fill="#fff" transform="translate(17.9 41.75)" d="M0 0h74.2v26.5H0z"/></clipPath></defs></svg>