<svg width="108" height="108" fill="none" xmlns="http://www.w3.org/2000/svg"><path d="M2 54C2 25.281 25.281 2 54 2s52 23.281 52 52-23.281 52-52 52S2 82.719 2 54z" fill="#8B3FFD"/><path d="M61.8 31.9c-13.033 0-23.4 10.516-23.4 23.4 0 13.033 10.515 23.4 23.4 23.4 12.884 0 23.399-10.515 23.399-23.4.148-12.884-10.515-23.4-23.4-23.4zm0 32.138c-4.74 0-8.738-3.998-8.738-8.738 0-4.739 3.998-8.738 8.738-8.738 4.739 0 8.737 4 8.737 8.738 0 4.74-3.85 8.738-8.737 8.738z" fill="#fff"/><path d="M38.401 37.1v36.4H30.36L20.201 37.1h18.2zM54 104.775C25.958 104.775 3.225 82.042 3.225 54H.775c0 29.395 23.83 53.225 53.225 53.225v-2.45zM104.775 54c0 28.042-22.733 50.775-50.775 50.775v2.45c29.395 0 53.225-23.83 53.225-53.225h-2.45zM54 3.225c28.042 0 50.775 22.733 50.775 50.775h2.45C107.225 24.605 83.395.775 54 .775v2.45zm0-2.45C24.605.775.775 24.605.775 54h2.45C3.225 25.958 25.958 3.225 54 3.225V.775z" fill="#fff"/></svg>